<svg width="168" height="112" viewBox="0 0 168 112" fill="none" xmlns="http://www.w3.org/2000/svg">
<path d="M55.7259 0.00251007C24.9496 0.00251007 0.000556946 24.9516 0.000556946 55.7278C0.000556946 86.5041 24.9496 111.453 55.7259 111.453C86.5021 111.453 111.451 86.5041 111.451 55.7278C111.451 24.9516 86.5021 0.00251007 55.7259 0.00251007Z" fill="#327EFF"/>
<path d="M111.449 0.00251007C80.6723 0.00251007 55.7232 24.9516 55.7232 55.7278C55.7232 86.5041 80.6723 111.453 111.449 111.453C142.225 111.453 167.174 86.5041 167.174 55.7278C167.174 24.9516 142.225 0.00251007 111.449 0.00251007Z" fill="#FFDE2D"/>
<path d="M55.7246 55.7281C55.7246 24.9539 80.6735 0.00390625 111.45 0.00390625V55.7281H55.7246Z" fill="#FF6446"/>
<path d="M111.448 55.7266C111.448 86.5035 86.4988 111.451 55.7227 111.451V55.7266H111.448Z" fill="#FF6446"/>
</svg>
