<svg width="29" height="36" viewBox="0 0 29 36" fill="none" xmlns="http://www.w3.org/2000/svg">
<mask id="mask0_2677_40143" style="mask-type:luminance" maskUnits="userSpaceOnUse" x="0" y="0" width="29" height="36">
<path d="M28.8 0H0V36H28.8V0Z" fill="white"/>
</mask>
<g mask="url(#mask0_2677_40143)">
<path fill-rule="evenodd" clip-rule="evenodd" d="M0 5.62127C0 4.58692 0 4.06975 0.189869 3.65348C0.357191 3.28664 0.626294 2.97572 0.96511 2.75777C1.34958 2.51044 1.86074 2.43703 2.88305 2.29021L17.463 0.196199C18.7865 0.00612596 19.4482 -0.0889105 19.9624 0.111751C20.4138 0.2879 20.7905 0.61494 21.0287 1.03745C21.3 1.51875 21.3 2.18826 21.3 3.52727V32.4727C21.3 33.8117 21.3 34.4812 21.0287 34.9626C20.7905 35.3851 20.4138 35.7121 19.9624 35.8882C19.4482 36.0889 18.7865 35.9939 17.463 35.8038L2.88305 33.7098C1.86074 33.563 1.34958 33.4896 0.96511 33.2422C0.626294 33.0243 0.357191 32.7134 0.189869 32.3465C0 31.9302 0 31.4131 0 30.3787V5.62127ZM14.7 15.4267C14.7 15.1172 14.7 14.9625 14.7582 14.8402C14.8094 14.7325 14.8916 14.6425 14.9942 14.5817C15.1108 14.5127 15.2649 14.4986 15.5731 14.4706L16.9531 14.3452C17.3162 14.3122 17.4978 14.2957 17.6379 14.3562C17.7611 14.4094 17.8629 14.5024 17.927 14.6202C18 14.7543 18 14.9366 18 15.3012V20.6988C18 21.0634 18 21.2457 17.927 21.3798C17.8629 21.4976 17.7611 21.5906 17.6379 21.6438C17.4978 21.7043 17.3162 21.6878 16.9531 21.6548L15.5731 21.5294C15.2649 21.5014 15.1108 21.4873 14.9942 21.4183C14.8916 21.3575 14.8094 21.2675 14.7582 21.1598C14.7 21.0375 14.7 20.8828 14.7 20.5733V15.4267ZM25.44 3H23.4V33H25.44C26.6161 33 27.2042 33 27.6534 32.7711C28.0485 32.5698 28.3698 32.2485 28.5711 31.8534C28.8 31.4042 28.8 30.8161 28.8 29.64V6.36C28.8 5.18389 28.8 4.59583 28.5711 4.14662C28.3698 3.75148 28.0485 3.43022 27.6534 3.22889C27.2042 3 26.6161 3 25.44 3Z" fill="#191C1D"/>
<path fill-rule="evenodd" clip-rule="evenodd" d="M0 5.62127C0 4.58692 0 4.06975 0.189869 3.65348C0.357191 3.28664 0.626294 2.97572 0.96511 2.75777C1.34958 2.51044 1.86074 2.43703 2.88305 2.29021L17.463 0.196199C18.7865 0.00612596 19.4482 -0.0889105 19.9624 0.111751C20.4138 0.2879 20.7905 0.61494 21.0287 1.03745C21.3 1.51875 21.3 2.18826 21.3 3.52727V32.4727C21.3 33.8117 21.3 34.4812 21.0287 34.9626C20.7905 35.3851 20.4138 35.7121 19.9624 35.8882C19.4482 36.0889 18.7865 35.9939 17.463 35.8038L2.88305 33.7098C1.86074 33.563 1.34958 33.4896 0.96511 33.2422C0.626294 33.0243 0.357191 32.7134 0.189869 32.3465C0 31.9302 0 31.4131 0 30.3787V5.62127ZM14.7 15.4267C14.7 15.1172 14.7 14.9625 14.7582 14.8402C14.8094 14.7325 14.8916 14.6425 14.9942 14.5817C15.1108 14.5127 15.2649 14.4986 15.5731 14.4706L16.9531 14.3452C17.3162 14.3122 17.4978 14.2957 17.6379 14.3562C17.7611 14.4094 17.8629 14.5024 17.927 14.6202C18 14.7543 18 14.9366 18 15.3012V20.6988C18 21.0634 18 21.2457 17.927 21.3798C17.8629 21.4976 17.7611 21.5906 17.6379 21.6438C17.4978 21.7043 17.3162 21.6878 16.9531 21.6548L15.5731 21.5294C15.2649 21.5014 15.1108 21.4873 14.9942 21.4183C14.8916 21.3575 14.8094 21.2675 14.7582 21.1598C14.7 21.0375 14.7 20.8828 14.7 20.5733V15.4267ZM25.44 3H23.4V33H25.44C26.6161 33 27.2042 33 27.6534 32.7711C28.0485 32.5698 28.3698 32.2485 28.5711 31.8534C28.8 31.4042 28.8 30.8161 28.8 29.64V6.36C28.8 5.18389 28.8 4.59583 28.5711 4.14662C28.3698 3.75148 28.0485 3.43022 27.6534 3.22889C27.2042 3 26.6161 3 25.44 3Z" fill="url(#paint0_linear_2677_40143)"/>
</g>
<defs>
<linearGradient id="paint0_linear_2677_40143" x1="-8.91429" y1="24.8965" x2="26.9632" y2="10.8165" gradientUnits="userSpaceOnUse">
<stop stop-color="#4B2EFB"/>
<stop offset="1" stop-color="#E65FFC"/>
</linearGradient>
</defs>
</svg>
