<?xml version="1.0" encoding="UTF-8"?>
<svg id="Layer_1" data-name="Layer 1" xmlns="http://www.w3.org/2000/svg" xmlns:xlink="http://www.w3.org/1999/xlink" viewBox="0 0 899 473">
  <defs>
    <style>
      .cls-1 {
        fill: url(#linear-gradient-2);
      }

      .cls-2 {
        stroke: url(#linear-gradient);
      }

      .cls-2, .cls-3 {
        fill: none;
        stroke-linecap: round;
        stroke-miterlimit: 10;
        stroke-width: 50px;
      }

      .cls-3 {
        stroke: #fff;
      }
    </style>
    <linearGradient id="linear-gradient" x1="280" y1="259.04" x2="662" y2="259.04" gradientUnits="userSpaceOnUse">
      <stop offset="0" stop-color="#24235f" stop-opacity="0"/>
      <stop offset=".45" stop-color="#225fe5" stop-opacity=".97"/>
      <stop offset="1" stop-color="#2261ea"/>
    </linearGradient>
    <linearGradient id="linear-gradient-2" x1="620.7" y1="213.72" x2="827.9" y2="213.72" gradientUnits="userSpaceOnUse">
      <stop offset="0" stop-color="#ff6634"/>
      <stop offset="1" stop-color="#fea744"/>
    </linearGradient>
  </defs>
  <path class="cls-3" d="m197.32,353.98l-130.99-107.26c-7.25-5.93-7.19-17.03.12-22.89l130.86-104.8"/>
  <line class="cls-3" x1="386" y1="28.94" x2="225" y2="444.06"/>
  <path class="cls-2" d="m305,363.04s37.87-4.9,51-13.65c56-37.31,32-178.38,107-193.85,47.63-9.82,65,127.41,94,151.07,39.83,32.5,65.22,5.51,80-10.01"/>
  <path class="cls-1" d="m765.85,60.76l-25.67,117.51c-.67,3.07,1.67,5.97,4.81,5.97h77.98c4.09,0,6.39,4.7,3.89,7.93l-138.89,179.45c-3.3,4.26-10.06.89-8.64-4.31l33.03-120.74c.86-3.13-1.5-6.22-4.75-6.22h-81.99c-4.07,0-6.38-4.66-3.92-7.9l134.15-176.31c3.66-4.8,11.28-1.28,10,4.62Z"/>
</svg>